<svg id="house" xmlns="http://www.w3.org/2000/svg" width="28.584" height="26.188" viewBox="0 0 28.584 26.188">
  <g id="Group_8839" data-name="Group 8839" transform="translate(0 0)">
    <path id="Path_9116" data-name="Path 9116" d="M28.28,38.013a1.767,1.767,0,0,0-2.44-.472l-3.648,2.441-.011-7.6,1.267,1.187a1.443,1.443,0,0,0,.99.391h0A1.454,1.454,0,0,0,25.5,33.5a1.448,1.448,0,0,0-.067-2.047l-2.4-2.251a.408.408,0,1,0-.558.6l2.4,2.251a.632.632,0,0,1-.432,1.094h0a.63.63,0,0,1-.432-.171h0l-9.54-8.937a.408.408,0,0,0-.559,0L4.393,33a.632.632,0,0,1-.867-.92l10.227-9.634a.633.633,0,0,1,.866,0l5.983,5.6a.408.408,0,0,0,.558-.6l-5.983-5.6a1.451,1.451,0,0,0-1.983,0L9.919,24.938v-.55a.649.649,0,0,0-.649-.648h0l-2.342,0a.649.649,0,0,0-.648.65l.006,3.969L2.966,31.488a1.448,1.448,0,0,0,.95,2.5H3.96a1.438,1.438,0,0,0,.992-.394l1.264-1.191.005,3.589A8.6,8.6,0,0,0,4.983,35.9h-.7v-.245a1.491,1.491,0,0,0-1.49-1.49H1.49A1.491,1.491,0,0,0,0,35.659v6.393a.408.408,0,1,0,.816,0V35.659a.674.674,0,0,1,.674-.674H2.8a.674.674,0,0,1,.674.674v9.662a.674.674,0,0,1-.674.674H1.49a.674.674,0,0,1-.674-.674v-.714a.408.408,0,1,0-.816,0v.714a1.491,1.491,0,0,0,1.49,1.49H2.8a1.491,1.491,0,0,0,1.49-1.49v-.055l5.975,2.263.034.011a2.85,2.85,0,0,0,.776.11,2.641,2.641,0,0,0,.413-.032l8.781-1.266h.006a4.3,4.3,0,0,0,2.037-.913l.015-.013,5.673-5.1A1.767,1.767,0,0,0,28.28,38.013ZM9.1,24.556l0,1.15-2,1.889,0-3.035Zm5.086.339,7.176,6.722.012,8.91-1.155.773L19,41.232l-.032-.325a2.584,2.584,0,0,0-2.076-2.285l-.007-5.3a.739.739,0,0,0-.738-.737h0l-3.889.005a.738.738,0,0,0-.737.739l.006,4.622a7.754,7.754,0,0,1-2.193-.869q-.129-.075-.26-.146l-.1-.054c-.053-.028-.106-.056-.16-.082l-.129-.062-.137-.065L8.4,36.612l-.13-.055L8.124,36.5l-.13-.05L7.848,36.4l-.138-.047L7.57,36.3l-.151-.046-.13-.038-.171-.045-.08-.021-.006-4.515ZM16.074,38.52l-3.413-.393-.322-.037-.007-4.685,3.733-.005Zm11.375,1.194-5.667,5.1a3.482,3.482,0,0,1-1.639.733l-8.777,1.265h-.012a1.945,1.945,0,0,1-.823-.053L4.285,44.393V36.719h.7a7.791,7.791,0,0,1,1.759.2l.064.015c.071.017.141.035.211.054L7.036,37q.105.029.21.061l.038.011q.111.034.222.072l.023.008q.23.079.455.173l.024.01q.112.047.223.1l.006,0q.107.049.212.1l.025.012q.1.052.2.106l.038.021c.068.037.136.075.2.115A8.571,8.571,0,0,0,12.06,38.88h.01l4.571.526.075.013A1.769,1.769,0,0,1,18.1,40.691a1.793,1.793,0,0,1,.055.3l.018.183L9.6,40.42a.408.408,0,1,0-.071.813l9.058.794H18.6l1.708.1h.023l.024,0,.027,0,.036-.007.026-.006a.4.4,0,0,0,.038-.014l.021-.008a.4.4,0,0,0,.055-.031l1.45-.97h0l4.282-2.866a.947.947,0,0,1,1.155,1.5Z" transform="translate(0 -21.461)" fill="#2a2a2a"/>
  </g>
</svg>
