<svg xmlns="http://www.w3.org/2000/svg" width="46.78" height="37.991" viewBox="0 0 46.78 37.991">
    <defs>
        <style>
            .cls-1{fill:#2a2a2a}
        </style>
    </defs>
    <g id="shop" transform="translate(0 -48.096)">
        <g id="Group_22" data-name="Group 22" transform="translate(0 48.096)">
            <g id="Group_21" data-name="Group 21">
                <path id="Path_5929" d="M44.63 84.716h-.78V64.387a6.36 6.36 0 0 0 2.93-5.352.686.686 0 0 0-.09-.34l-5.438-9.516a2.155 2.155 0 0 0-1.867-1.079H7.395a2.155 2.155 0 0 0-1.867 1.083L.09 58.7a.686.686 0 0 0-.09.34 6.36 6.36 0 0 0 2.93 5.352v20.324h-.78a.685.685 0 1 0 0 1.37h42.48a.685.685 0 1 0 0-1.37zm-43.212-25h2.2a.685.685 0 0 0 0-1.371H1.866l4.852-8.49a.781.781 0 0 1 .677-.393h31.99a.781.781 0 0 1 .677.393l4.852 8.49h-1.749a.685.685 0 1 0 0 1.371h2.2a4.99 4.99 0 0 1-9.886 0h4.76a.685.685 0 1 0 0-1.371H6.545a.685.685 0 0 0 0 1.371H11.3a4.99 4.99 0 0 1-9.886 0zm32.591 0a4.99 4.99 0 0 1-9.885 0zm-11.352 0a4.99 4.99 0 0 1-9.885 0zm16.161 25H31.4v-2.291h7.418zm0-3.662H31.4V68.509h7.418zm3.662 3.662h-2.292V67.824a.685.685 0 0 0-.685-.685h-8.789a.685.685 0 0 0-.685.685v16.892H4.3V65.052a6.355 6.355 0 0 0 7.737-3.146 6.36 6.36 0 0 0 11.352 0 6.36 6.36 0 0 0 11.352 0 6.355 6.355 0 0 0 7.737 3.146z" class="cls-1" data-name="Path 5929" transform="translate(0 -48.096)"/>
            </g>
        </g>
        <g id="Group_24" data-name="Group 24" transform="translate(6.592 67.139)">
            <g id="Group_23" data-name="Group 23">
                <path id="Path_5930" d="M92.605 256.516H72.83a.685.685 0 0 0-.685.685v13.916a.685.685 0 0 0 .685.685h19.775a.685.685 0 0 0 .685-.685V257.2a.685.685 0 0 0-.685-.684zm-.685 13.916h-18.4v-12.546h18.4z" class="cls-1" data-name="Path 5930" transform="translate(-72.145 -256.516)"/>
            </g>
        </g>
    </g>
</svg>
