<svg xmlns="http://www.w3.org/2000/svg" width="20.296" height="25.264" viewBox="0 0 20.296 25.264">
  <g id="Group_8840" data-name="Group 8840" transform="translate(-856.704 -3902.736)">
    <g id="employee" transform="translate(856.704 3902.736)">
      <g id="Group_20" data-name="Group 20" transform="translate(0)">
        <path id="Path_5926" data-name="Path 5926" d="M99.469,19.688a.356.356,0,0,0-.356.356V23.39a.2.2,0,0,1-.2.2H97v-7.01a.356.356,0,0,0-.712,0v7.01H92.439l1.117-1.229a.638.638,0,0,0,.154-.512l0-.011-1.064-6.287.287-.432a.807.807,0,0,0,.51.221A.623.623,0,0,0,94,14.993h0l1.122-2.25,2.557.99a2.466,2.466,0,0,1,1.436,2.242v2.408a.356.356,0,1,0,.712,0V15.975a3.177,3.177,0,0,0-1.879-2.9l-.007,0-4.256-1.648v-1a3.335,3.335,0,0,0,1.262-2.194,1.541,1.541,0,0,0,.905-.369,1.511,1.511,0,0,0,.158-2.132V4.411a4.411,4.411,0,1,0-8.823,0V5.765a1.429,1.429,0,0,0-.367.953,1.508,1.508,0,0,0,.525,1.145,1.54,1.54,0,0,0,.9.369,3.3,3.3,0,0,0,1.334,2.247v.945l-4.251,1.648-.007,0a3.177,3.177,0,0,0-1.879,2.9V23.39a.909.909,0,0,0,.908.908h3.391a.356.356,0,0,0,0-.712h-.766V16.577a.356.356,0,0,0-.712,0v7.01H84.355a.2.2,0,0,1-.2-.2V15.975a2.466,2.466,0,0,1,1.435-2.242l2.555-.99,1.122,2.25a.623.623,0,0,0,.558.345.807.807,0,0,0,.51-.221l.287.432-1.064,6.287,0,.011a.638.638,0,0,0,.154.512l1.117,1.229H89.408a.356.356,0,1,0,0,.712h9.509a.91.91,0,0,0,.908-.908V20.044A.356.356,0,0,0,99.469,19.688Zm-5.015-7.2-1.046,2.1-1.258-.894,1.293-1.6ZM92.35,14.7l-.271.408h-.888L90.92,14.7l.715-.508ZM90.3,11.538v-.666a3.611,3.611,0,0,0,1.346.255,3.342,3.342,0,0,0,1.331-.277v.691l-1.337,1.651Zm5.369-4.821a.8.8,0,0,1-.277.605.829.829,0,0,1-.411.189V5.923A.805.805,0,0,1,95.664,6.717Zm-7.445.794a.8.8,0,0,1-.688-.795.845.845,0,0,1,.688-.776Zm.019-2.3a1.76,1.76,0,0,0-.34.077V4.411a3.7,3.7,0,1,1,7.4,0v.856a1.582,1.582,0,0,0-.321-.062c0-.343,0-.277-1.121-1.485a.633.633,0,0,0-.809-.1A6.862,6.862,0,0,1,88.9,4.739.633.633,0,0,0,88.239,5.216Zm.693,2.576V5.454a7.606,7.606,0,0,0,4.449-1.2c.515.553.794.843.884.954V7.792a2.667,2.667,0,0,1-5.333,0Zm.931,6.79-1.046-2.1,1.011-.391,1.293,1.6Zm.408,7.33,1.03-6.087h.668L93,21.912l-1.364,1.5Z" transform="translate(-83.447)" fill="#2a2a2a"/>
      </g>
    </g>
    <circle id="Ellipse_87" data-name="Ellipse 87" cx="5.5" cy="5.5" r="5.5" transform="translate(866 3917)" fill="#34bf49"/>
    <path id="Path_9117" data-name="Path 9117" d="M-13273.6,16127.4l2.093,2.094,4.04-4.041" transform="translate(14142 -12204.569)" fill="none" stroke="#fff" stroke-linecap="round" stroke-linejoin="round" stroke-width="1"/>
  </g>
</svg>
